<svg width="90" height="15" viewBox="0 0 90 15" fill="none" xmlns="http://www.w3.org/2000/svg">
<path d="M4.0533 11.8763C3.436 11.8763 2.88748 11.7476 2.40774 11.49C1.93153 11.2325 1.55586 10.8851 1.28072 10.4477C1.0091 10.0067 0.873295 9.51114 0.873295 8.96086C0.873295 8.594 0.945608 8.25889 1.09023 7.95553C1.23486 7.64864 1.45356 7.34704 1.74634 7.05073C2.04265 6.7509 2.41656 6.43343 2.86808 6.09832L4.45014 4.91838C4.8946 4.5868 5.21913 4.27639 5.42372 3.98713C5.63184 3.69435 5.7359 3.35925 5.7359 2.98181C5.7359 2.53029 5.58069 2.14404 5.27028 1.82304C4.96339 1.50204 4.57184 1.34154 4.09563 1.34154C3.77111 1.34154 3.47303 1.4262 3.20142 1.59551C2.93333 1.76131 2.71816 1.97824 2.55589 2.24633C2.39716 2.51442 2.31779 2.80191 2.31779 3.1088C2.31779 3.34866 2.37423 3.58677 2.48711 3.82311C2.60352 4.05592 2.76754 4.31342 2.97919 4.59562C3.19437 4.87429 3.45187 5.19882 3.7517 5.5692L8.6831 11.7281H7.9L3.37074 6.08245C3.02152 5.6521 2.71992 5.27466 2.46594 4.95013C2.21197 4.6256 2.01619 4.31695 1.87862 4.02417C1.74105 3.73139 1.67227 3.42274 1.67227 3.09821C1.67227 2.66434 1.77809 2.27102 1.98974 1.91828C2.20491 1.562 2.49416 1.27981 2.85749 1.07169C3.22082 0.863566 3.63001 0.759506 4.08505 0.759506C4.53656 0.759506 4.93517 0.858275 5.28086 1.05581C5.62655 1.24982 5.8964 1.51615 6.09041 1.85478C6.28442 2.18989 6.38143 2.56557 6.38143 2.98181C6.38143 3.4439 6.25797 3.86191 6.01104 4.23582C5.76765 4.60973 5.38845 4.99599 4.87344 5.39459L3.0956 6.71739C2.50298 7.1689 2.09203 7.57104 1.86275 7.92378C1.63699 8.27653 1.52411 8.62222 1.52411 8.96086C1.52411 9.38415 1.63346 9.77041 1.85217 10.1196C2.07087 10.4688 2.36894 10.7493 2.74638 10.9609C3.12734 11.1726 3.55946 11.2802 4.04272 11.2837C4.52951 11.2766 4.97926 11.1814 5.39197 10.998C5.80469 10.8145 6.16802 10.5588 6.48196 10.2307C6.79943 9.89916 7.05694 9.50585 7.25447 9.05081C7.45554 8.59224 7.58606 8.08252 7.64602 7.52165L8.27567 7.5534C8.2404 7.99433 8.1628 8.39117 8.04286 8.74392C7.92293 9.09314 7.78359 9.40179 7.62486 9.66988C7.46965 9.93796 7.31973 10.1655 7.17511 10.3524C7.13278 10.4089 7.09221 10.4636 7.05341 10.5165C7.01461 10.5694 6.97228 10.6205 6.92642 10.6699C6.57015 11.0544 6.13274 11.3525 5.6142 11.5641C5.0992 11.7722 4.57889 11.8763 4.0533 11.8763ZM14.7315 11.7281V3.60088H15.3612V4.82843H15.4246C15.5799 4.41925 15.8479 4.09472 16.2289 3.85485C16.6099 3.61499 17.0684 3.49505 17.6046 3.49505C18.1937 3.49505 18.6682 3.63615 19.028 3.91835C19.3913 4.20055 19.6523 4.58327 19.811 5.06654H19.8693C20.028 4.59033 20.3119 4.20936 20.7211 3.92364C21.1338 3.63792 21.6418 3.49505 22.245 3.49505C23.0316 3.49505 23.6313 3.74374 24.044 4.24111C24.4602 4.73496 24.6684 5.41223 24.6684 6.27293V11.7281H24.0228V6.27293C24.0228 5.59566 23.8606 5.06301 23.536 4.67499C23.2115 4.28697 22.7353 4.09296 22.1074 4.09296C21.4372 4.09296 20.9222 4.30284 20.5624 4.72261C20.2026 5.14238 20.0227 5.67679 20.0227 6.32584V11.7281H19.3772V6.2306C19.3772 5.59918 19.2184 5.08594 18.901 4.69086C18.5835 4.29226 18.1073 4.09296 17.4723 4.09296C17.042 4.09296 16.6698 4.19173 16.3559 4.38926C16.0455 4.5868 15.8039 4.85842 15.631 5.20411C15.4617 5.5498 15.377 5.94664 15.377 6.39463V11.7281H14.7315ZM29.6205 11.9028C29.1514 11.9028 28.721 11.8093 28.3295 11.6223C27.9415 11.4354 27.6293 11.162 27.393 10.8022C27.1601 10.4424 27.0437 10.005 27.0437 9.48997C27.0437 9.15134 27.1037 8.85327 27.2236 8.59576C27.3436 8.33826 27.5288 8.11603 27.7792 7.92907C28.0297 7.74212 28.3507 7.58867 28.7422 7.46874C29.1338 7.34528 29.6011 7.25004 30.1444 7.18301C30.5571 7.13363 30.9257 7.08601 31.2502 7.04015C31.5748 6.99077 31.8287 6.91493 32.0122 6.81263C32.1991 6.71033 32.2926 6.55513 32.2926 6.34701V6.00837C32.2926 5.41576 32.1056 4.94484 31.7317 4.59562C31.3578 4.2464 30.8428 4.07179 30.1867 4.07179C29.6047 4.07179 29.1144 4.20055 28.7158 4.45805C28.3207 4.71203 28.0438 5.04008 27.885 5.44221L27.2765 5.21469C27.4318 4.82667 27.6557 4.50391 27.9485 4.2464C28.2448 3.9889 28.5835 3.79665 28.9644 3.66966C29.3489 3.54267 29.7511 3.47918 30.1708 3.47918C30.5342 3.47918 30.8799 3.53033 31.2079 3.63262C31.5395 3.73492 31.834 3.89013 32.0915 4.09825C32.3526 4.30637 32.5589 4.57269 32.7106 4.89722C32.8623 5.21822 32.9381 5.60271 32.9381 6.0507V11.7281H32.2926V10.2625H32.245C32.1039 10.5659 31.9099 10.8428 31.6629 11.0932C31.4196 11.3401 31.125 11.5377 30.7793 11.6858C30.4372 11.8304 30.0509 11.9028 29.6205 11.9028ZM29.684 11.3049C30.192 11.3049 30.6417 11.1814 31.0333 10.9345C31.4284 10.684 31.737 10.3419 31.9593 9.90798C32.1815 9.4741 32.2926 8.98202 32.2926 8.43174V7.23593C32.2115 7.30648 32.0933 7.36997 31.9381 7.42641C31.7864 7.47932 31.6136 7.52694 31.4196 7.56927C31.2291 7.60807 31.028 7.64335 30.8164 7.6751C30.6082 7.70331 30.4054 7.72977 30.2079 7.75446C29.6153 7.82501 29.132 7.93436 28.7581 8.08252C28.3877 8.22714 28.1161 8.41763 27.9432 8.65397C27.7739 8.89031 27.6893 9.17603 27.6893 9.51114C27.6893 10.065 27.8797 10.5024 28.2607 10.8234C28.6417 11.1444 29.1161 11.3049 29.684 11.3049ZM36.4101 6.45812V11.7281H35.7646V3.60088H36.3942V4.88664H36.4577C36.6482 4.46687 36.9533 4.13 37.3731 3.87602C37.7929 3.62204 38.292 3.49505 38.8705 3.49505C39.4173 3.49505 39.897 3.61146 40.3097 3.84427C40.7259 4.07708 41.0505 4.40867 41.2833 4.83902C41.5196 5.26584 41.6378 5.77556 41.6378 6.36817V11.7281H40.9923V6.39463C40.9923 5.70324 40.7859 5.14767 40.3732 4.7279C39.964 4.30461 39.4225 4.09296 38.7488 4.09296C38.2973 4.09296 37.8952 4.19173 37.5424 4.38926C37.1897 4.5868 36.9128 4.86371 36.7117 5.21998C36.5106 5.57273 36.4101 5.98544 36.4101 6.45812ZM44.668 14.7759C44.5057 14.7759 44.3452 14.7582 44.1865 14.723C44.0277 14.6877 43.8849 14.6418 43.7579 14.5854L43.9483 14.0192C44.2799 14.1462 44.5798 14.1921 44.8479 14.1568C45.1195 14.1215 45.3593 13.9981 45.5675 13.7864C45.7756 13.5748 45.9519 13.2644 46.0966 12.8552L46.467 11.8393L43.488 3.60088H44.1812L46.7633 10.8974H46.8162L49.3983 3.60088H50.0914L46.6627 13.1092C46.5322 13.476 46.3682 13.7829 46.1706 14.0298C45.9731 14.2767 45.7474 14.4619 45.4934 14.5854C45.2429 14.7124 44.9678 14.7759 44.668 14.7759ZM56.5393 11.7281V3.60088H57.169V4.82843H57.2325C57.3877 4.41925 57.6558 4.09472 58.0367 3.85485C58.4177 3.61499 58.8763 3.49505 59.4124 3.49505C60.0015 3.49505 60.476 3.63615 60.8358 3.91835C61.1991 4.20055 61.4601 4.58327 61.6189 5.06654H61.6771C61.8358 4.59033 62.1198 4.20936 62.5289 3.92364C62.9417 3.63792 63.4496 3.49505 64.0528 3.49505C64.8394 3.49505 65.4391 3.74374 65.8518 4.24111C66.2681 4.73496 66.4762 5.41223 66.4762 6.27293V11.7281H65.8306V6.27293C65.8306 5.59566 65.6684 5.06301 65.3439 4.67499C65.0193 4.28697 64.5431 4.09296 63.9152 4.09296C63.245 4.09296 62.73 4.30284 62.3702 4.72261C62.0104 5.14238 61.8305 5.67679 61.8305 6.32584V11.7281H61.185V6.2306C61.185 5.59918 61.0262 5.08594 60.7088 4.69086C60.3913 4.29226 59.9151 4.09296 59.2802 4.09296C58.8498 4.09296 58.4777 4.19173 58.1637 4.38926C57.8533 4.5868 57.6117 4.85842 57.4388 5.20411C57.2695 5.5498 57.1848 5.94664 57.1848 6.39463V11.7281H56.5393ZM72.2961 11.8975C71.6259 11.8975 71.0298 11.7176 70.5077 11.3578C69.9856 10.9944 69.5747 10.4953 69.2748 9.86036C68.975 9.22541 68.8251 8.50229 68.8251 7.69097C68.8251 6.87613 68.975 6.153 69.2748 5.52158C69.5747 4.88664 69.9856 4.3875 70.5077 4.02417C71.0298 3.66084 71.6259 3.47918 72.2961 3.47918C72.9663 3.47918 73.5625 3.66084 74.0845 4.02417C74.6066 4.3875 75.0176 4.88664 75.3174 5.52158C75.6172 6.15652 75.7671 6.87965 75.7671 7.69097C75.7671 8.50229 75.6172 9.22541 75.3174 9.86036C75.0176 10.4953 74.6066 10.9944 74.0845 11.3578C73.5625 11.7176 72.9663 11.8975 72.2961 11.8975ZM72.2961 11.2996C72.864 11.2996 73.3596 11.1391 73.7829 10.8181C74.2098 10.4971 74.5396 10.0632 74.7724 9.51643C75.0087 8.96967 75.1269 8.36119 75.1269 7.69097C75.1269 7.02075 75.0087 6.41403 74.7724 5.8708C74.5361 5.32404 74.2062 4.89016 73.7829 4.56917C73.3596 4.24464 72.864 4.08237 72.2961 4.08237C71.7282 4.08237 71.2326 4.24464 70.8093 4.56917C70.386 4.89016 70.0562 5.32404 69.8198 5.8708C69.5835 6.41403 69.4653 7.02075 69.4653 7.69097C69.4653 8.36119 69.5817 8.96967 69.8145 9.51643C70.0509 10.0632 70.3807 10.4971 70.804 10.8181C71.2308 11.1391 71.7282 11.2996 72.2961 11.2996ZM78.1108 11.7281V3.60088H78.7404V4.87076H78.7986C78.975 4.45452 79.2731 4.12118 79.6928 3.87073C80.1126 3.61675 80.5906 3.48976 81.1267 3.48976C81.1832 3.48976 81.2396 3.48976 81.2961 3.48976C81.3525 3.48976 81.4054 3.49153 81.4548 3.49505V4.14587C81.4125 4.14234 81.3613 4.13705 81.3013 4.13C81.2449 4.11941 81.1744 4.11412 81.0897 4.11412C80.6382 4.11412 80.2361 4.21113 79.8833 4.40514C79.5341 4.59915 79.2589 4.86724 79.0579 5.2094C78.8568 5.54804 78.7563 5.93606 78.7563 6.37346V11.7281H78.1108ZM86.231 11.8975C85.4973 11.8975 84.8589 11.7158 84.3156 11.3525C83.7724 10.9891 83.3526 10.4918 83.0563 9.86036C82.76 9.22894 82.6119 8.50934 82.6119 7.70155C82.6119 6.89024 82.76 6.16711 83.0563 5.53216C83.3562 4.89722 83.7671 4.39632 84.2892 4.02946C84.8112 3.66261 85.4074 3.47918 86.0776 3.47918C86.5326 3.47918 86.963 3.57089 87.3686 3.75432C87.7778 3.93422 88.1376 4.19525 88.4481 4.53742C88.762 4.87958 89.0072 5.29229 89.1835 5.77556C89.3634 6.25882 89.4534 6.80205 89.4534 7.40524V7.80738H83.0193V7.22005H88.8079C88.8079 6.63097 88.6879 6.10008 88.4481 5.6274C88.2082 5.15472 87.8819 4.77905 87.4692 4.50038C87.0565 4.22171 86.5926 4.08237 86.0776 4.08237C85.5379 4.08237 85.0564 4.23406 84.6331 4.53742C84.2133 4.83725 83.88 5.24291 83.6331 5.75439C83.3897 6.26587 83.2627 6.83732 83.2521 7.46874V7.7333C83.2521 8.41057 83.3703 9.01906 83.6066 9.55876C83.8465 10.0949 84.1886 10.52 84.6331 10.8339C85.0776 11.1444 85.6102 11.2996 86.231 11.2996C86.6755 11.2996 87.0547 11.2255 87.3686 11.0773C87.6861 10.9257 87.9454 10.7422 88.1465 10.527C88.3475 10.3119 88.4992 10.1038 88.6015 9.90269L89.1888 10.1408C89.0654 10.4124 88.8731 10.684 88.6121 10.9556C88.3546 11.2237 88.0265 11.4477 87.6279 11.6276C87.2328 11.8075 86.7672 11.8975 86.231 11.8975Z" fill="#565656"/>
</svg>
