<svg width="129" height="18" viewBox="0 0 129 18" fill="none" xmlns="http://www.w3.org/2000/svg">
<g clip-path="url(#clip0_1_675)">
<mask id="mask0_1_675" style="mask-type:luminance" maskUnits="userSpaceOnUse" x="0" y="0" width="129" height="18">
<path d="M128.313 0.046875H0.715698V17.8169H128.313V0.046875Z" fill="white"/>
</mask>
<g mask="url(#mask0_1_675)">
<path d="M5.83033 8.93188L10.945 17.8169H0.715698L5.83033 8.93188Z" fill="#4C4C4C"/>
<path d="M5.83033 0.046875L10.945 8.93188H0.715698L5.83033 0.046875Z" fill="#4C4C4C"/>
<path d="M23.9726 4.89331C25.1464 4.89331 26.1799 5.07702 27.073 5.44446C27.9789 5.79922 28.7636 6.32504 29.4271 7.02191L27.8386 9.13149C27.2899 8.56132 26.6966 8.13687 26.0587 7.85813C25.4335 7.5667 24.719 7.42102 23.9152 7.42102C23.4431 7.42102 23.0603 7.4717 22.7669 7.57306C22.4734 7.67442 22.2629 7.81377 22.1353 7.99115C22.0077 8.16853 21.9439 8.37125 21.9439 8.59935C21.9439 8.8654 22.0651 9.09346 22.3075 9.28353C22.5627 9.46091 22.971 9.61295 23.5324 9.73965L25.6568 10.2148C26.9199 10.5062 27.8449 10.9307 28.4319 11.4881C29.0188 12.0456 29.3123 12.7869 29.3123 13.7118C29.3123 14.5987 29.0826 15.3526 28.6233 15.9734C28.1639 16.5816 27.5324 17.044 26.7286 17.3608C25.9247 17.6649 25.0061 17.8169 23.9726 17.8169C23.1305 17.8169 22.3267 17.7282 21.5611 17.5508C20.7956 17.3608 20.1066 17.0947 19.4942 16.7526C18.8817 16.4105 18.365 16.0178 17.944 15.5743L19.5325 13.3887C19.8514 13.7561 20.2406 14.0856 20.6999 14.3769C21.172 14.6557 21.6824 14.8774 22.231 15.0421C22.7924 15.2069 23.3602 15.2892 23.9343 15.2892C24.3809 15.2892 24.7509 15.2449 25.0443 15.1562C25.3506 15.0675 25.5739 14.9345 25.7142 14.7571C25.8545 14.5797 25.9247 14.3706 25.9247 14.1299C25.9247 13.8638 25.829 13.6421 25.6376 13.4647C25.4463 13.2746 25.0826 13.1163 24.5467 12.9896L22.2118 12.4764C21.4973 12.3117 20.8594 12.0963 20.298 11.8303C19.7493 11.5515 19.3156 11.1841 18.9966 10.7279C18.6776 10.2591 18.5181 9.67632 18.5181 8.97945C18.5181 8.19387 18.735 7.49704 19.1688 6.88885C19.6026 6.268 20.2278 5.78021 21.0444 5.42545C21.861 5.07069 22.837 4.89331 23.9726 4.89331ZM42.402 5.08334L37.9429 13.0466V17.6269H34.651V13.0466L30.1917 5.08334H33.5984L35.3783 8.52333L36.3162 10.6139L37.2731 8.52333L39.0529 5.08334H42.402ZM55.6157 5.08334V17.6269H51.9601L48.0368 10.842L47.0799 8.97945H47.0607L47.1371 11.2981V17.6269H44.228V5.08334H47.8837L51.8069 11.8682L52.7638 13.7308H52.783L52.7066 11.4121V5.08334H55.6157ZM69.4187 5.08334V7.61105H65.3039V17.6269H62.0121V7.61105H57.8781V5.08334H69.4187ZM83.0898 5.08334V17.6269H79.7979V5.08334H83.0898ZM74.975 5.08334V17.6269H71.6832V5.08334H74.975ZM81.559 10.0437V12.5714H73.2907V10.0437H81.559ZM86.27 17.6269V5.08334H96.1074V7.61105H89.5618V10.1578H94.7674V12.5335H89.5618V15.0992H96.3561V17.6269H86.27ZM103.665 4.89331C104.838 4.89331 105.872 5.07702 106.765 5.44446C107.671 5.79922 108.456 6.32504 109.119 7.02191L107.531 9.13149C106.982 8.56132 106.389 8.13687 105.751 7.85813C105.125 7.5667 104.411 7.42102 103.607 7.42102C103.135 7.42102 102.752 7.4717 102.459 7.57306C102.165 7.67442 101.955 7.81377 101.827 7.99115C101.7 8.16853 101.636 8.37125 101.636 8.59935C101.636 8.8654 101.757 9.09346 102 9.28353C102.255 9.46091 102.663 9.61295 103.224 9.73965L105.349 10.2148C106.612 10.5062 107.537 10.9307 108.124 11.4881C108.711 12.0456 109.004 12.7869 109.004 13.7118C109.004 14.5987 108.775 15.3526 108.315 15.9734C107.856 16.5816 107.224 17.044 106.421 17.3608C105.617 17.6649 104.698 17.8169 103.665 17.8169C102.822 17.8169 102.019 17.7282 101.253 17.5508C100.488 17.3608 99.7986 17.0947 99.1864 16.7526C98.5738 16.4105 98.0571 16.0178 97.636 15.5743L99.2244 13.3887C99.5435 13.7561 99.9326 14.0856 100.392 14.3769C100.864 14.6557 101.374 14.8774 101.923 15.0421C102.485 15.2069 103.052 15.2892 103.626 15.2892C104.073 15.2892 104.443 15.2449 104.736 15.1562C105.043 15.0675 105.266 14.9345 105.406 14.7571C105.546 14.5797 105.617 14.3706 105.617 14.1299C105.617 13.8638 105.521 13.6421 105.33 13.4647C105.138 13.2746 104.775 13.1163 104.239 12.9896L101.904 12.4764C101.189 12.3117 100.552 12.0963 99.9901 11.8303C99.4415 11.5515 99.0076 11.1841 98.6885 10.7279C98.3698 10.2591 98.2103 9.67632 98.2103 8.97945C98.2103 8.19387 98.427 7.49704 98.8609 6.88885C99.2947 6.268 99.9198 5.78021 100.736 5.42545C101.553 5.07069 102.529 4.89331 103.665 4.89331ZM114.736 5.08334V17.6269H111.444V5.08334H114.736ZM122.858 4.89331C124.032 4.89331 125.066 5.07702 125.959 5.44446C126.864 5.79922 127.649 6.32504 128.313 7.02191L126.724 9.13149C126.175 8.56132 125.582 8.13687 124.944 7.85813C124.319 7.5667 123.605 7.42102 122.801 7.42102C122.329 7.42102 121.946 7.4717 121.652 7.57306C121.359 7.67442 121.148 7.81377 121.021 7.99115C120.893 8.16853 120.829 8.37125 120.829 8.59935C120.829 8.8654 120.951 9.09346 121.193 9.28353C121.448 9.46091 121.857 9.61295 122.418 9.73965L124.542 10.2148C125.805 10.5062 126.73 10.9307 127.317 11.4881C127.904 12.0456 128.198 12.7869 128.198 13.7118C128.198 14.5987 127.968 15.3526 127.509 15.9734C127.049 16.5816 126.418 17.044 125.614 17.3608C124.81 17.6649 123.892 17.8169 122.858 17.8169C122.016 17.8169 121.212 17.7282 120.447 17.5508C119.681 17.3608 118.992 17.0947 118.38 16.7526C117.767 16.4105 117.25 16.0178 116.829 15.5743L118.418 13.3887C118.737 13.7561 119.126 14.0856 119.585 14.3769C120.058 14.6557 120.568 14.8774 121.116 15.0421C121.678 15.2069 122.246 15.2892 122.82 15.2892C123.267 15.2892 123.636 15.2449 123.93 15.1562C124.236 15.0675 124.459 14.9345 124.6 14.7571C124.74 14.5797 124.81 14.3706 124.81 14.1299C124.81 13.8638 124.715 13.6421 124.523 13.4647C124.332 13.2746 123.968 13.1163 123.432 12.9896L121.097 12.4764C120.383 12.3117 119.745 12.0963 119.183 11.8303C118.635 11.5515 118.201 11.1841 117.882 10.7279C117.563 10.2591 117.404 9.67632 117.404 8.97945C117.404 8.19387 117.621 7.49704 118.055 6.88885C118.488 6.268 119.113 5.78021 119.93 5.42545C120.747 5.07069 121.723 4.89331 122.858 4.89331Z" fill="#4C4C4C"/>
</g>
</g>
<defs>
<clipPath id="clip0_1_675">
<rect width="127.92" height="17.77" fill="white" transform="translate(0.715698 0.046875)"/>
</clipPath>
</defs>
</svg>
