<svg width="37" height="37" viewBox="0 0 37 37" fill="none" xmlns="http://www.w3.org/2000/svg">
<path d="M1 18.3906C1 8.72564 8.83502 0.890625 18.5 0.890625C28.165 0.890625 36 8.72564 36 18.3906C36 28.0556 28.165 35.8906 18.5 35.8906C8.83502 35.8906 1 28.0556 1 18.3906Z" stroke="#2E2E1F" stroke-opacity="0.12"/>
<g clip-path="url(#clip0_1_514)">
<path d="M18.5 25.1406C22.2279 25.1406 25.25 22.1185 25.25 18.3906C25.25 14.6627 22.2279 11.6406 18.5 11.6406C14.7721 11.6406 11.75 14.6627 11.75 18.3906C11.75 22.1185 14.7721 25.1406 18.5 25.1406Z" stroke="#2E2E27" stroke-width="16" stroke-linecap="round" stroke-linejoin="round"/>
<path d="M15.6875 18.3907C15.6875 21.0246 16.6248 23.3773 18.0978 24.9642C18.149 25.0199 18.2112 25.0643 18.2804 25.0947C18.3496 25.1251 18.4244 25.1408 18.5 25.1408C18.5756 25.1408 18.6504 25.1251 18.7196 25.0947C18.7888 25.0643 18.851 25.0199 18.9022 24.9642C20.3752 23.3773 21.3125 21.0246 21.3125 18.3907C21.3125 15.7568 20.3752 13.4041 18.9022 11.8172C18.851 11.7615 18.7888 11.7171 18.7196 11.6867C18.6504 11.6563 18.5756 11.6406 18.5 11.6406C18.4244 11.6406 18.3496 11.6563 18.2804 11.6867C18.2112 11.7171 18.149 11.7615 18.0978 11.8172C16.6248 13.4041 15.6875 15.7568 15.6875 18.3907Z" stroke="#2E2E27" stroke-width="16" stroke-linecap="round" stroke-linejoin="round"/>
<path d="M12.1339 16.1406H24.8661" stroke="#2E2E27" stroke-width="16" stroke-linecap="round" stroke-linejoin="round"/>
<path d="M12.1339 20.6406H24.8661" stroke="#2E2E27" stroke-width="16" stroke-linecap="round" stroke-linejoin="round"/>
</g>
<defs>
<clipPath id="clip0_1_514">
<rect width="18" height="18" fill="white" transform="translate(9.5 9.39062)"/>
</clipPath>
</defs>
</svg>
