<svg width="110" height="25" viewBox="0 0 110 25" fill="none" xmlns="http://www.w3.org/2000/svg">
<g clip-path="url(#clip0_1_40)">
<path fill-rule="evenodd" clip-rule="evenodd" d="M7.11952 1.03872C6.91934 0.787222 6.53727 0.787222 6.3371 1.03872L0.608788 8.23583C0.463738 8.41807 0.463737 8.67633 0.608788 8.85857L6.72831 16.5472L12.7044 24.0557C12.9046 24.3072 13.2867 24.3072 13.4869 24.0557L19.2152 16.8586C19.3602 16.6763 19.3602 16.4181 19.2152 16.2358L13.0957 8.5472H24.7933C25.212 8.5472 25.4453 8.06341 25.1846 7.73583L19.8542 1.03872C19.654 0.787222 19.272 0.787222 19.0718 1.03872L13.0957 8.5472L7.11952 1.03872Z" fill="white"/>
<path d="M33.2949 1.2627H37.3249L43.3079 19.2737H43.4009L49.4149 1.2627H53.4449L45.5709 23.3657L41.1069 23.3967L33.2949 1.2627Z" fill="white"/>
<path d="M67.0454 18.6541C66.1154 21.9091 63.3564 23.8311 59.5434 23.8311C54.7384 23.8311 51.4834 20.3901 51.4834 15.3371C51.4834 10.47 54.8934 6.93604 59.5434 6.93604C65.0304 6.93604 67.2624 11.1521 67.2934 15.7091C67.2934 15.8641 67.2934 16.1121 67.2624 16.3911H54.9244C55.2034 19.2121 57.0014 20.9481 59.5434 20.9481C61.3724 20.9481 62.9224 20.2351 63.4804 18.6541H67.0454ZM54.9554 13.8491H63.7594C63.5424 11.5551 62.2094 9.72604 59.5434 9.72604C57.0014 9.72604 55.2964 11.3691 54.9554 13.8491Z" fill="white"/>
<path d="M77.9952 12.1751C77.8092 10.377 76.3832 9.66404 74.9262 9.66404C73.5002 9.66404 72.2912 10.47 72.2912 11.5861C72.2912 12.7021 73.2522 13.3531 74.8952 13.7561C75.6082 13.9421 76.3212 14.0971 77.0342 14.3141C79.6382 14.9961 81.6842 16.2671 81.6842 18.8091C81.6842 22.0021 78.5222 23.8311 75.1122 23.8311C71.8882 23.8311 68.6952 22.3431 68.3542 18.4991H71.8882C72.1982 20.2661 73.2832 21.0721 75.1432 21.0721C76.6622 21.0721 78.1502 20.4831 78.1502 18.9951C78.1502 17.6931 76.9102 17.2591 75.5772 16.9181C74.8022 16.7321 74.0272 16.5461 73.2832 16.3291C70.7102 15.6471 68.8192 14.1901 68.8192 11.7101C68.8192 8.79604 71.7022 6.93604 74.9882 6.93604C78.4292 6.93604 81.0642 8.70304 81.4362 12.1751H77.9952Z" fill="white"/>
<path d="M88.0436 17.8789C88.0436 19.6149 88.5396 20.5449 90.0896 20.5449H91.1436V23.4279L89.4076 23.4589C85.7186 23.4899 84.5096 21.2889 84.5096 18.3129V10.1599H81.9986V7.36987H84.5096V3.71186L88.0436 2.13086V7.36987H91.1746V10.1599H88.0436V17.8789Z" fill="white"/>
<path d="M100.352 23.8311C95.6093 23.8311 92.0753 20.4211 92.0753 15.3991C92.0753 10.377 95.6093 6.93604 100.352 6.93604C105.064 6.93604 108.598 10.377 108.598 15.3991C108.598 20.4211 105.064 23.8311 100.352 23.8311ZM95.5783 15.3991C95.5783 18.4371 97.4693 20.9171 100.352 20.9171C103.204 20.9171 105.095 18.4371 105.095 15.3991C105.095 12.3301 103.204 9.85004 100.352 9.85004C97.4693 9.85004 95.5783 12.3301 95.5783 15.3991Z" fill="white"/>
</g>
<defs>
<clipPath id="clip0_1_40">
<rect width="109" height="24" fill="white" transform="translate(0.5 0.546875)"/>
</clipPath>
</defs>
</svg>
