<svg width="113" height="25" viewBox="0 0 113 25" fill="none" xmlns="http://www.w3.org/2000/svg">
<g clip-path="url(#clip0_1_937)">
<path fill-rule="evenodd" clip-rule="evenodd" d="M7.05171 0.667007C6.84602 0.408483 6.45343 0.408483 6.24775 0.667006L0.361782 8.06503C0.21274 8.25236 0.212739 8.51783 0.361782 8.70516L6.64973 16.6084L12.7903 24.3265C12.996 24.585 13.3886 24.585 13.5943 24.3265L19.4803 16.9285C19.6293 16.7412 19.6293 16.4757 19.4803 16.2884L13.1924 8.3851H25.2119C25.6421 8.3851 25.8819 7.8878 25.614 7.55108L20.1369 0.667006C19.9312 0.408483 19.5387 0.408483 19.333 0.667007L13.1924 8.3851L7.05171 0.667007Z" fill="#2E2E27"/>
<path d="M33.9475 0.897736H38.0884L44.2361 19.4115H44.3317L50.5112 0.897736H54.6521L46.5614 23.6178L41.9745 23.6496L33.9475 0.897736Z" fill="#2E2E27"/>
<path d="M68.6269 18.7742C67.6713 22.1201 64.8364 24.0957 60.9184 24.0957C55.9812 24.0957 52.6366 20.5587 52.6366 15.3646C52.6366 10.3618 56.1405 6.7291 60.9184 6.7291C66.5565 6.7291 68.8499 11.0628 68.8817 15.747C68.8817 15.9063 68.8817 16.1612 68.8499 16.448H56.1723C56.459 19.3478 58.3065 21.1322 60.9184 21.1322C62.7978 21.1322 64.3904 20.3993 64.9638 18.7742H68.6269ZM56.2042 13.8351H65.2505C65.0275 11.477 63.6578 9.59698 60.9184 9.59698C58.3065 9.59698 56.5545 11.2858 56.2042 13.8351Z" fill="#2E2E27"/>
<path d="M79.8781 12.1143C79.687 10.2662 78.2217 9.53325 76.7246 9.53325C75.2594 9.53325 74.0171 10.3618 74.0171 11.5089C74.0171 12.656 75.0045 13.3252 76.6928 13.7395C77.4254 13.9307 78.158 14.09 78.8906 14.313C81.5663 15.0141 83.6686 16.3206 83.6686 18.9335C83.6686 22.2157 80.4196 24.0957 76.9157 24.0957C73.603 24.0957 70.3221 22.5662 69.9717 18.6149H73.603C73.9215 20.4312 75.0364 21.2597 76.9476 21.2597C78.5084 21.2597 80.0374 20.6543 80.0374 19.1247C80.0374 17.7864 78.7632 17.3403 77.3935 16.9897C76.5972 16.7985 75.8009 16.6074 75.0364 16.3843C72.3926 15.6833 70.4495 14.1856 70.4495 11.6363C70.4495 8.64102 73.4119 6.7291 76.7883 6.7291C80.324 6.7291 83.0316 8.54542 83.4138 12.1143H79.8781Z" fill="#2E2E27"/>
<path d="M90.2031 17.9776C90.2031 19.7621 90.7127 20.718 92.3054 20.718H93.3884V23.6815L91.6046 23.7134C87.8141 23.7452 86.5718 21.4828 86.5718 18.4237V10.0431H83.9917V7.17523H86.5718V3.41511L90.2031 1.78998V7.17523H93.4202V10.0431H90.2031V17.9776Z" fill="#2E2E27"/>
<path d="M102.851 24.0957C97.977 24.0957 94.3457 20.5905 94.3457 15.4283C94.3457 10.2662 97.977 6.7291 102.851 6.7291C107.692 6.7291 111.323 10.2662 111.323 15.4283C111.323 20.5905 107.692 24.0957 102.851 24.0957ZM97.9451 15.4283C97.9451 18.5511 99.8882 21.1004 102.851 21.1004C105.781 21.1004 107.724 18.5511 107.724 15.4283C107.724 12.2737 105.781 9.72444 102.851 9.72444C99.8882 9.72444 97.9451 12.2737 97.9451 15.4283Z" fill="#2E2E27"/>
</g>
<defs>
<clipPath id="clip0_1_937">
<rect width="112" height="24.67" fill="white" transform="translate(0.25 0.161926)"/>
</clipPath>
</defs>
</svg>
